<?xml version="1.0" encoding="utf-8"?>
<!-- Generator: Adobe Illustrator 21.0.2, SVG Export Plug-In . SVG Version: 6.00 Build 0)  -->
<!DOCTYPE svg PUBLIC "-//W3C//DTD SVG 1.1//EN" "http://www.w3.org/Graphics/SVG/1.1/DTD/svg11.dtd">
<svg version="1.1" id="Layer_1" xmlns="http://www.w3.org/2000/svg" xmlns:xlink="http://www.w3.org/1999/xlink" x="0px" y="0px"
	 viewBox="0 0 689.9 171.4" style="enable-background:new 0 0 689.9 171.4;" xml:space="preserve">
<style type="text/css">
	.st0{fill:#FFFFFF;}
	.st1{fill:#00512F;}
	.st2{fill:#F37421;}
</style>
<path class="st0" d="M145.1,28.9l0.2,83.1c0,5.3,0,21.5-40.8,21.6l-3.8,0l-3.8,0c-40.8-0.1-40.8-16.3-40.8-21.6l0.2-83.1H0l0,95.6
	c0,26.4,74.1,28.5,96.8,28.5h7.6c22.7,0,96.8-2.1,96.8-28.5l0-95.6H145.1"/>
<path class="st1" d="M149.5,112l0-79h47.7c0,0-0.1,88.3-0.1,91.5c0,17.3-47.6,24.3-92.6,24.3c0-2.2,0-7.6,0-11
	C127,137.7,149.5,132.9,149.5,112"/>
<path class="st2" d="M51.9,112l0-79H4.2c0,0,0.1,88.3,0.1,91.5c0,17.3,47.6,24.3,92.6,24.3c0-2.2,0-7.6,0-11
	C74.3,137.7,51.9,132.9,51.9,112"/>
<path class="st0" d="M288.9,34v3h-3.3c-2.6,0-3.4,0.6-3.4,3.1V66c0,8.2,4,11.9,12.8,11.9c5.8,0,9.6-2.1,11.4-6c0.8-1.8,1-4.7,1-8.9
	V42.8c0-3.9-0.8-5.8-4.6-5.8H300v-3h17.6v3h-2.4c-3.7,0-4.7,1.7-4.7,5.8v20.5c0,12.6-4.6,18.2-17.8,18.2c-11.6,0-17.5-5.2-17.5-15.5
	V40.1c0-2.4-0.7-3.1-3.4-3.1h-3.7v-3H288.9"/>
<path class="st0" d="M320.5,77.6c5.9-0.4,6.9-2.5,6.9-8.2V39.1c-1-1.7-2.7-2.1-5.8-2.1h-1.1v-3H333l25.5,35V45
	c0-6.2-1.2-8.2-7.6-8.2V34h17.9v2.8c-5.8,0.3-7,2.3-7,8.2v36.5h-2.6l-28.6-39v26.8c0,6,1.3,8.2,7.6,8.2v2.8h-17.8V77.6"/>
<path class="st0" d="M373.1,77.3h3.5c2.6,0,3.5-0.6,3.5-3.1V40.1c0-2.4-0.8-3.1-3.5-3.1h-3.5v-3h20.9v3h-3.5c-2.6,0-3.4,0.6-3.4,3.1
	v34.1c0,2.4,0.8,3.1,3.4,3.1h3.5v3h-20.9V77.3"/>
<path class="st0" d="M419.1,81.5l-16.2-41.6c-1-2.5-1.4-2.8-4.6-2.8h-1.4v-3h19.7v3h-2.4c-2.6,0-3.9,0.3-3.9,1.7
	c0,0.4,0.1,1.3,0.5,2.2l11.4,29l10.1-25.9c0.6-1.5,0.8-2.8,0.8-3.7c0-2.4-1.5-3.4-4.6-3.4h-1.8v-3h16.7v3c-0.1,0-0.3,0-0.5,0
	c-3.7,0-5,1.6-6.5,5.5l-14.9,39H419.1"/>
<path class="st0" d="M445.6,77.3h3.3c2.6,0,3.4-0.6,3.4-3.1V40.1c0-2.5-0.8-3.1-3.4-3.1h-3.3v-3h37.5l0.8,16.4h-2.8
	c-0.8-5.6-2.5-9.4-4.5-11.1c-2.2-1.9-6-2.4-11.9-2.4c-4.2,0-5.5,0.2-5.5,3.2v14.7c0.3,0,0.6,0,0.9,0c6.6,0,9.1-2.2,9.7-8.9h2.7v20.4
	h-2.7c-0.6-6.7-3-8.8-9.7-8.8c-0.3,0-0.6,0-0.9,0v16.7c0,3.1,1.4,3.3,6,3.3c5.4,0,9.2-0.4,11.8-1.7c3-1.5,4.7-5.8,6-13.1h2.4
	l-1,17.6h-39V77.3"/>
<path class="st0" d="M490.3,77.3h3.3c2.6,0,3.4-0.6,3.4-3.1V40.1c0-2.5-0.8-3.1-3.4-3.1h-3.3v-3h25.7c7.8,0,13,4.6,13,11.4
	c0,6.7-4.7,10.5-14.2,11.6c5.2,0.7,7.9,3.2,9,8.3l1.7,7.3c0.6,2.8,1.5,4.2,2.9,4.2c1.7,0,2.5-2.2,2.6-6.7h2.4c0,0.5,0.1,1,0.1,1.5
	c0,6.5-2.9,10.1-7.8,10.1c-5.1,0-6.9-2.8-7.6-9l-0.7-6.4c-0.6-6.2-3.8-8.1-9.9-8.1H504v16.4c0,2.5,0.8,3.1,3.3,3.1h4v3h-21V77.3
	 M504,54.8l3.1,0.1c0.8,0.1,1.5,0.1,2.2,0.1c8.5,0,12.3-2.6,12.3-9.2c0-6.5-3.1-8.9-10.2-8.9h-4.2c-2.7,0-3.3,0.6-3.3,2.8V54.8z"/>
<path class="st0" d="M540.1,81.1h-2.2l-0.3-18.6h2.6c1.9,10.6,7.3,16.1,15.5,16.1c7,0,10.8-3.5,10.8-9.2c0-2.7-1-4.8-2.8-6.1
	c-2.2-1.6-5.8-2.2-10.5-3.5C542.9,57.1,538,54.5,538,46c0-8,5.3-13.1,13.7-13.1c4.7,0,8.8,1.5,12,4.5l2.5-3.9h2.4l0.7,16.7h-2.5
	c-2.4-9.6-7.5-14.4-15.1-14.4c-5.6,0-8.9,2.8-8.9,7.8c0,6.2,4.8,6.9,13.3,9c4.6,1.2,8.5,2.1,11.4,4.8c2.5,2.3,3.9,5.8,3.9,9.9
	c0,8.9-5.6,14.2-15.9,14.2c-5,0-9.7-1.8-12.8-4.8L540.1,81.1"/>
<path class="st0" d="M576.6,77.3h3.5c2.6,0,3.5-0.6,3.5-3.1V40.1c0-2.4-0.8-3.1-3.5-3.1h-3.5v-3h20.9v3h-3.5c-2.6,0-3.4,0.6-3.4,3.1
	v34.1c0,2.4,0.8,3.1,3.4,3.1h3.5v3h-20.9V77.3"/>
<path class="st0" d="M630.1,77.3h4.1v3h-21.9v-3h4.1c2.6,0,3.4-0.6,3.4-3.1V39.9c0-3.4-1-3.4-4.2-3.4c-6.2,0-8.5,4.6-10,15.3h-2.4
	L604,34h38.5l1,17.8H641c-1.7-11.9-3.9-15.3-11.3-15.3c-2.4,0-3,0.8-3,3.4v34.4C626.8,76.8,627.6,77.3,630.1,77.3"/>
<path class="st0" d="M674.8,77.3h4v3H657v-3h4c2.5,0,3.4-0.6,3.4-3.1V61.2l-13-20.6c-1.5-2.5-2.2-3.5-5.3-3.5H645v-3h19.8v3h-2.6
	c-2.2,0-3.3,0.4-3.3,1.5c0,0.6,0.4,1.3,1,2.2L670,56.9l8.4-14.6c0.5-0.9,0.8-1.7,0.8-2.5c0-1.8-1.5-2.7-4.4-2.7h-1.8v-3h16.9v3h-1.2
	c-3,0-3.9,1-5.3,3.5l-11.9,20.3v13.4C671.4,76.7,672.3,77.3,674.8,77.3"/>
<path class="st0" d="M278.3,107.3c4.1-4.7,9.6-7.1,16-7.1c6.5,0,11.7,2.3,15.9,7.1c4,4.6,6.1,10.3,6.1,17.3c0,6.9-1.7,12.2-5.6,16.8
	c-4.3,5-9.7,7.4-16.4,7.4c-6.7,0-12-2.4-16.4-7.4c-4-4.6-5.7-10-5.7-16.8C272.2,117.6,274.3,111.7,278.3,107.3 M294.3,145.8
	c9.2,0,13.7-7.1,13.7-21.4c0-14.4-4.3-21.4-13.7-21.4c-9.3,0-13.7,7-13.7,21.4C280.6,138.8,284.9,145.8,294.3,145.8z"/>
<path class="st0" d="M317.8,144.6h3.3c2.6,0,3.4-0.6,3.4-3.1v-34.1c0-2.5-0.8-3.1-3.4-3.1h-3.3v-3h37.5l0.8,16.4h-2.8
	c-0.8-5.6-2.5-9.4-4.5-11.1c-2.2-1.9-6-2.4-11.9-2.4c-4.2,0-5.5,0.2-5.5,3.2v14.7c0.3,0,0.6,0,0.9,0c6.6,0,9.1-2.2,9.7-8.9h2.7v20.4
	h-2.7c-0.6-6.7-3-8.8-9.7-8.8c-0.3,0-0.6,0-0.9,0v16.7c0,2.5,0.8,3.1,3.3,3.1h4.2v3h-21.3V144.6"/>
<path class="st0" d="M388.5,136.7c0,6.1,1.3,8.2,7.6,8.2v2.8h-18.6v-2.8c6.5-0.1,7.7-2.2,7.7-8.2v-29.3c0-2.5-0.8-3.1-3.4-3.1H378
	v-3h16l12.5,35.4l12.1-35.4h15.7v3h-3.4c-2.6,0-3.3,0.6-3.3,3.1v34.1c0,2.5,0.8,3.1,3.3,3.1h3.4v3h-20.8v-3h3.9
	c2.6,0,3.4-0.6,3.4-3.1v-36.1l-14.4,42.2h-2.5l-15.3-42.2V136.7"/>
<path class="st0" d="M440.1,144.6h3.5c2.6,0,3.5-0.6,3.5-3.1v-34.1c0-2.4-0.8-3.1-3.5-3.1h-3.5v-3H461v3h-3.5
	c-2.6,0-3.4,0.6-3.4,3.1v34.1c0,2.4,0.8,3.1,3.4,3.1h3.5v3h-20.9V144.6"/>
<path class="st0" d="M485.2,100.5l16.4,40.9c1,2.5,1.8,3.3,4.4,3.3c0.4,0,0.8,0,1.3,0v2.9h-19.2v-3.1h2.4c2.7,0,3.9-0.2,3.9-1.7
	c0-0.5-0.2-1.3-0.6-2.2l-3-8.1h-17.3l-2,5c-0.6,1.5-0.9,3-0.9,3.9c0,2.1,1.6,3.1,4.7,3.1h1.6v3.1h-16.6v-3c0.2,0,0.3,0,0.5,0
	c3.8,0,5.1-1.5,6.6-5.5l15.1-38.6H485.2 M482.1,110.7l-7.3,18.6h15L482.1,110.7z"/>
<path class="st0" d="M518.1,136.7c0,6.1,1.3,8.2,7.6,8.2v2.8h-18.6v-2.9c6.5-0.1,7.7-2.1,7.7-8.1v-29.3c0-2.5-0.8-3.1-3.4-3.1h-3.8
	v-3h16l12.4,35.4l12.1-35.4h15.7v3h-3.4c-2.6,0-3.3,0.6-3.3,3.1v34.1c0,2.5,0.8,3.1,3.3,3.1h3.4v3H543v-3h3.9c2.6,0,3.4-0.6,3.4-3.1
	v-36.1l-14.4,42.2h-2.5l-15.3-42.2V136.7"/>
<path class="st0" d="M569.6,144.6h3.5c2.6,0,3.5-0.6,3.5-3.1v-34.1c0-2.4-0.8-3.1-3.5-3.1h-3.5v-3h20.9v3h-3.5
	c-2.6,0-3.4,0.6-3.4,3.1v34.1c0,2.4,0.8,3.1,3.4,3.1h3.5v3h-20.9V144.6"/>
<g>
	<rect x="235.3" class="st0" width="3" height="171.4"/>
</g>
</svg>
